GIL11_slow2_RRA_states
nRows=7
nColumns=47

# SIMM Motion File Header:
name GIL11_slow2_RRA_states
datacolumns 47
datarows 7
otherdata 1
range 0.57867000000000024000 0.58167000000000024000
endheader
time	pelvis_tx	pelvis_ty	pelvis_tz	pelvis_tilt	pelvis_list	pelvis_rotation	hip_flexion_r	hip_adduction_r	hip_rotation_r	knee_angle_r	ankle_angle_r	subtalar_angle_r	mtp_angle_r	hip_flexion_l	hip_adduction_l	hip_rotation_l	knee_angle_l	ankle_angle_l	subtalar_angle_l	mtp_angle_l	lumbar_extension	lumbar_bending	lumbar_rotation	pelvis_tx_u	pelvis_ty_u	pelvis_tz_u	pelvis_tilt_u	pelvis_list_u	pelvis_rotation_u	hip_flexion_r_u	hip_adduction_r_u	hip_rotation_r_u	knee_angle_r_u	ankle_angle_r_u	subtalar_angle_r_u	mtp_angle_r_u	hip_flexion_l_u	hip_adduction_l_u	hip_rotation_l_u	knee_angle_l_u	ankle_angle_l_u	subtalar_angle_l_u	mtp_angle_l_u	lumbar_extension_u	lumbar_bending_u	lumbar_rotation_u
      0.57867000000000024000	      1.66096949099112370000	      0.86661849109022071000	     -0.30920265893799903000	     -7.63865041147265080000	     -0.74030632726314105000	      4.04159621581438340000	     32.29249502638191400000	     -3.84951167126511830000	      2.08926234818401690000	    -31.95403466946032400000	      3.30969416716253790000	      0.00000000000000231580	     -0.00000000000000762122	      3.46589474746441220000	      4.23866474723223520000	      7.53952266932750350000	     -8.53230185509990060000	     10.41997018418489200000	      0.00000000000000918335	     -0.00000000000007091543	     -1.45749239011156910000	      0.65246936155663882000	     -1.01371593200744490000	      0.64801742468094736000	     -0.08944817484632054700	     -0.01340970988342993200	     -7.42746482713920740000	     -7.91959518194084480000	      5.82617809197864660000	     37.85703333936679400000	     12.50257391857342900000	     -7.59804486504611010000	    214.71539745195611000000	     -9.86492323792228550000	      0.00000000000001371295	     -0.00000000000001598682	    -58.10564649051440300000	     -9.87922600231807020000	      5.40616854058218180000	     32.23915617602610000000	     13.14847226330776700000	     -0.00000000000048837221	      0.00000000000060711333	      5.66333610122508090000	      4.11883673193300750000	    -14.56018816401336500000
      0.57917000000000018000	      1.66129361520248000000	      0.86657368501181553000	     -0.30920940139063258000	     -7.64237332866758210000	     -0.74426693203936090000	      4.04452649483522200000	     32.31134269932442000000	     -3.84328005843968910000	      2.08552448579184850000	    -31.84660177237029200000	      3.30471656966316460000	      0.00000000000000232369	     -0.00000000000000762973	      3.43685828681005480000	      4.23373419258185810000	      7.54227491394744920000	     -8.51620881683282070000	     10.42656002494717200000	      0.00000000000000893833	     -0.00000000000007060565	     -1.45463902273696830000	      0.65454452327956902000	     -1.02100333050849420000	      0.64847965615358139000	     -0.08977604821138583700	     -0.01356038651977378900	     -7.46408742151885020000	     -7.92278372814670370000	      5.89503966909197260000	     37.53363688700353900000	     12.42373499248047300000	     -7.35329674491690980000	    215.01563618090364000000	    -10.04537565613771100000	      0.00000000000001701792	     -0.00000000000001900358	    -58.04027204944248600000	     -9.84290943524283790000	      5.60324200225303760000	     32.13285464407291400000	     13.21120935662038000000	     -0.00000000000049650294	      0.00000000000062036541	      5.75002025668456800000	      4.18179918618544730000	    -14.58927704362965500000
      0.57967000000000024000	      1.66161797088161610000	      0.86652871513268137000	     -0.30921621960951728000	     -7.64611438354820110000	     -0.74822906845847659000	      4.04749135586887830000	     32.33002864426803300000	     -3.83708808069225690000	      2.08190916155460970000	    -31.73901959024448900000	      3.29964888554072600000	      0.00000000000000233235	     -0.00000000000000763917	      3.40785440228960910000	      4.22882192349022560000	      7.54512633823530530000	     -8.50016914717468450000	     10.43318167294002300000	      0.00000000000000868987	     -0.00000000000007029865	     -1.45174248192541460000	      0.65665114712101202000	     -1.02830507904223680000	      0.64894329309750254000	     -0.09010337711700809600	     -0.01371277296499258600	     -7.50001788750343050000	     -7.92571706143869200000	      5.96450347095029270000	     37.21012681722749700000	     12.34402963716876800000	     -7.10788822981010690000	    215.31253274967273000000	    -10.22526363761662300000	      0.00000000000001749926	     -0.00000000000002021601	    -57.97533645252970300000	     -9.80607873443378250000	      5.80287665038115550000	     32.02567292933470400000	     13.27562293181285100000	     -0.00000000000050927086	      0.00000000000064141154	      5.83603187289816550000	      4.24467981944547380000	    -14.61758583195611800000
      0.58017000000000019000	      1.66194255873102410000	      0.86648358172941897000	     -0.30922311443211914000	     -7.64987322948822520000	     -0.75219260397766741000	      4.05049109622927080000	     32.34855280890307200000	     -3.83093617276970110000	      2.07841670289858400000	    -31.63128980123561000000	      3.29449139005483140000	      0.00000000000000234125	     -0.00000000000000764865	      3.37888287289955210000	      4.22392819870700810000	      7.54807820951057010000	     -8.48418328492053320000	     10.43983592063238500000	      0.00000000000000844078	     -0.00000000000006998486	     -1.44880310507005780000	      0.65878918358940264000	     -1.03562078502385300000	      0.64940834215721743000	     -0.09043013727962402600	     -0.01386677036732022200	     -7.53524590143314210000	     -7.92837964347563240000	      6.03455473005680520000	     36.88651370315639600000	     12.26346056183573200000	     -6.86184807584943800000	    215.60605926411765000000	    -10.40464721400776300000	      0.00000000000001864340	     -0.00000000000001711466	    -57.91086569139309100000	     -9.76873890649264180000	      6.00502453743646750000	     31.91764524036911500000	     13.34167311577506800000	     -0.00000000000048112884	      0.00000000000059021815	      5.92135813921872690000	      4.30744330945678570000	    -14.64510668995906800000
      0.58067000000000024000	      1.66226737946034240000	      0.86643828509425269000	     -0.30923008663198609000	     -7.65364951063840150000	     -0.75615740033587298000	      4.05352600606804270000	     32.36691514245356400000	     -3.82482476371162900000	      2.07504741379506450000	    -31.52341409723512900000	      3.28924431238513510000	      0.00000000000000235014	     -0.00000000000000765701	      3.34994345478527000000	      4.21905326869935580000	      7.55113177371409080000	     -8.46825163727252850000	     10.44652361312645000000	      0.00000000000000820087	     -0.00000000000006968564	     -1.44582124015985820000	      0.66095856498099559000	     -1.04295005311601630000	      0.64987481006669223000	     -0.09075630391093633700	     -0.01402228019198019000	     -7.56976099693552400000	     -7.93075561383179470000	      6.10517871467156500000	     36.56280787118412000000	     12.18203009030866600000	     -6.61520632431321150000	    215.89618788870362000000	    -10.58358621050502500000	      0.00000000000001686678	     -0.00000000000001759374	    -57.84688589919387900000	     -9.73089441206402840000	      6.20963781994843080000	     31.80880565497501800000	     13.40932581391952500000	     -0.00000000000046810721	      0.00000000000061934162	      6.00598604898053790000	      4.37005401297585030000	    -14.67183181451347500000
      0.58117000000000019000	      1.66259243377840330000	      0.86639282552842833000	     -0.30923713694754634000	     -7.65744287001955380000	     -0.76012330919466820000	      4.05659636791413190000	     32.38511560309228100000	     -3.81875428578993680000	      2.07180159208351400000	    -31.41539418414106100000	      3.28390786799089220000	      0.00000000000000235869	     -0.00000000000000766514	      3.32103590095849690000	      4.21419738757947910000	      7.55428825002437690000	     -8.45237460879132030000	     10.45324550660616600000	      0.00000000000000796887	     -0.00000000000006935123	     -1.44279723758147730000	      0.66315920614365709000	     -1.05029248319211770000	      0.65034270128322902000	     -0.09108185260086949800	     -0.01417920125264638700	     -7.60355324953760010000	     -7.93282919161267670000	      6.17636043852529860000	     36.23902033418159600000	     12.09974104058613200000	     -6.36799189936173620000	    216.18289139288129000000	    -10.76214010009060800000	      0.00000000000001622145	     -0.00000000000001650327	    -57.78342244516584000000	     -9.69255024223349790000	      6.41666702337985480000	     31.69918904539743600000	     13.47853955938093400000	     -0.00000000000044235376	      0.00000000000066819756	      6.08990248399222000000	      4.43247587912352440000	    -14.69775503364675600000
      0.58167000000000024000	      1.66291772239969760000	      0.86634720334872528000	     -0.30924426605166611000	     -7.66125294174347360000	     -0.76409017644822408000	      4.05970245698878780000	     32.40315415089722300000	     -3.81272516537681170000	      2.06867951235495570000	    -31.30723178116312200000	      3.27848222655145480000	      0.00000000000000236694	     -0.00000000000000767350	      3.29215994204475580000	      4.20936080099880440000	      7.55754883521038940000	     -8.43655257196077990000	     10.46000240691349100000	      0.00000000000000774764	     -0.00000000000006902451	     -1.43973145845622490000	      0.66539100334108470000	     -1.05764767348407250000	      0.65081202036447849000	     -0.09140675842522440200	     -0.01433743268735600600	     -7.63661258592600500000	     -7.93458427953498550000	      6.24808496516382310000	     35.91516184187285900000	     12.01659584984457200000	     -6.12023502114045130000	    216.46614261908735000000	    -10.94036816292588400000	      0.00000000000001725732	     -0.00000000000001691333	    -57.72050085362767600000	     -9.65371085111810600000	      6.62606280608874880000	     31.58883016912136200000	     13.54927876054650100000	     -0.00000000000044673229	      0.00000000000059980799	      6.17309412381717330000	      4.49467254204835420000	    -14.72287022478970400000
